<?xml version="1.0" encoding="utf-8"?>
<!-- Generator: Adobe Illustrator 24.2.1, SVG Export Plug-In . SVG Version: 6.00 Build 0)  -->
<svg version="1.1" id="Layer_1" xmlns="http://www.w3.org/2000/svg" xmlns:xlink="http://www.w3.org/1999/xlink" x="0px" y="0px"
	 width="40.2px" height="40.2px" viewBox="0 0 40.2 40.2" style="enable-background:new 0 0 40.2 40.2;" xml:space="preserve">
<style type="text/css">
	.st0{fill:#FFFFFF;}
	.st1{fill:#E27A13;}
</style>
<g>
	<path class="st0" d="M20.1,40.2C9,40.2,0,31.2,0,20.1S9,0,20.1,0s20.1,9,20.1,20.1S31.2,40.2,20.1,40.2z"/>
</g>
<g>
	<path class="st1" d="M20.1,37.9c-9.8,0-17.8-8-17.8-17.8s8-17.8,17.8-17.8s17.8,8,17.8,17.8S29.9,37.9,20.1,37.9z M20.1,5
		C11.8,5,5,11.8,5,20.1s6.8,15.1,15.1,15.1s15.1-6.8,15.1-15.1S28.4,5,20.1,5z"/>
	<g>
		<circle class="st1" cx="11.6" cy="20.1" r="1.8"/>
		<circle class="st1" cx="28.6" cy="20.1" r="1.8"/>
	</g>
	<g>
		<g>
			<path class="st1" d="M8.3,16.7c-0.2,0-0.3-0.1-0.4-0.3c-0.1-0.2,0-0.5,0.2-0.6l5.3-2.2c0.2-0.1,0.5,0,0.6,0.2
				c0.1,0.2,0,0.5-0.2,0.6l-5.4,2.2C8.4,16.7,8.3,16.7,8.3,16.7z"/>
			<path class="st1" d="M8.3,16.9c-0.3,0-0.5-0.2-0.6-0.4c-0.1-0.4,0-0.8,0.4-0.9l5.3-2.2c0.4-0.1,0.8,0,0.9,0.4
				c0.1,0.4,0,0.8-0.4,0.9l-5.3,2.2C8.5,16.9,8.4,16.9,8.3,16.9z M13.6,13.8C13.6,13.8,13.6,13.8,13.6,13.8l-5.4,2.3
				c-0.1,0-0.1,0.2-0.1,0.2c0,0.1,0.2,0.1,0.2,0.1l5.4-2.2c0.1,0,0.1-0.2,0.1-0.3C13.8,13.9,13.7,13.8,13.6,13.8z"/>
		</g>
		<g>
			<path class="st1" d="M31.9,16.7c-0.1,0-0.1,0-0.2,0l-5.4-2.2c-0.2-0.1-0.3-0.4-0.2-0.6c0.1-0.2,0.4-0.3,0.6-0.2l5.3,2.2
				c0.2,0.1,0.3,0.4,0.2,0.6C32.2,16.6,32.1,16.7,31.9,16.7z"/>
			<path class="st1" d="M31.9,16.9c-0.1,0-0.2,0-0.3-0.1l-5.3-2.2c-0.2-0.1-0.3-0.2-0.4-0.4c-0.1-0.2-0.1-0.4,0-0.5
				c0.1-0.4,0.6-0.5,0.9-0.4l5.4,2.2c0.4,0.1,0.5,0.6,0.4,0.9C32.4,16.8,32.2,16.9,31.9,16.9z M26.6,13.8c-0.1,0-0.1,0-0.2,0.1
				c0,0,0,0.1,0,0.1s0.1,0.1,0.1,0.1l5.4,2.2c0.1,0,0.2,0,0.3-0.1c0-0.1,0-0.2-0.1-0.2L26.6,13.8C26.6,13.8,26.6,13.8,26.6,13.8z"/>
		</g>
	</g>
	<path class="st1" d="M26,28.7c0,0-0.1,0-0.1,0l-11.8-1.5c-0.5-0.1-0.9-0.6-0.9-1.1c0.1-0.5,0.6-0.9,1.1-0.9l11.8,1.5
		c0.5,0.1,0.9,0.6,0.9,1.1C27,28.3,26.5,28.7,26,28.7z"/>
</g>
</svg>
