<?xml version="1.0" encoding="utf-8"?>
<!-- Generator: Adobe Illustrator 24.2.1, SVG Export Plug-In . SVG Version: 6.00 Build 0)  -->
<svg version="1.1" id="Layer_1" xmlns="http://www.w3.org/2000/svg" xmlns:xlink="http://www.w3.org/1999/xlink" x="0px" y="0px"
	 width="40.19px" height="40.19px" viewBox="0 0 40.19 40.19" enable-background="new 0 0 40.19 40.19" xml:space="preserve">
<g>
	<path fill="#FFFFFF" d="M20.095,40.19C9.015,40.19,0,31.175,0,20.095S9.015,0,20.095,0S40.19,9.015,40.19,20.095
		S31.175,40.19,20.095,40.19z"/>
</g>
<g>
	<path fill="#007229" d="M20.095,37.851c-9.79,0-17.756-7.966-17.756-17.756S10.305,2.339,20.095,2.339s17.756,7.966,17.756,17.756
		S29.885,37.851,20.095,37.851z M20.095,4.99c-8.329,0-15.105,6.775-15.105,15.105S11.766,35.2,20.095,35.2S35.2,28.424,35.2,20.095
		S28.424,4.99,20.095,4.99z"/>
	<g>
		<circle fill="#007229" cx="11.595" cy="20.095" r="1.771"/>
		<circle fill="#007229" cx="28.595" cy="20.095" r="1.771"/>
	</g>
</g>
<g>
	<path fill="#007229" d="M20.271,30.928c-6.305,0-7.7-4.668-7.713-4.715c-0.072-0.255,0.076-0.52,0.331-0.593
		c0.256-0.073,0.521,0.074,0.596,0.329c0.048,0.164,1.234,4.015,6.787,4.015c5.31,0,6.422-3.966,6.433-4.006
		c0.068-0.257,0.331-0.412,0.589-0.342c0.257,0.068,0.41,0.332,0.342,0.589C27.623,26.252,26.313,30.928,20.271,30.928z"/>
	<path fill="#007229" d="M20.271,31.428c-6.741,0-8.182-5.033-8.195-5.084c-0.07-0.246-0.039-0.511,0.088-0.739
		c0.128-0.229,0.337-0.395,0.589-0.466c0.519-0.149,1.061,0.153,1.212,0.67c0.043,0.148,1.136,3.655,6.307,3.655
		c4.869,0,5.91-3.49,5.951-3.639c0.067-0.251,0.23-0.464,0.459-0.596c0.228-0.129,0.489-0.166,0.744-0.096
		c0.248,0.065,0.461,0.227,0.593,0.454c0.132,0.227,0.168,0.492,0.101,0.746C28.104,26.387,26.665,31.428,20.271,31.428z"/>
</g>
</svg>
