<?xml version="1.0" encoding="utf-8"?>
<!-- Generator: Adobe Illustrator 24.2.1, SVG Export Plug-In . SVG Version: 6.00 Build 0)  -->
<svg version="1.1" id="Layer_1" xmlns="http://www.w3.org/2000/svg" xmlns:xlink="http://www.w3.org/1999/xlink" x="0px" y="0px"
	 width="40.19px" height="40.19px" viewBox="0 0 40.19 40.19" enable-background="new 0 0 40.19 40.19" xml:space="preserve">
<g>
	<path fill="#FFFFFF" d="M20.095,40.19C9.015,40.19,0,31.175,0,20.095S9.015,0,20.095,0S40.19,9.015,40.19,20.095
		S31.175,40.19,20.095,40.19z"/>
</g>
<g>
	<path fill="#DC241F" d="M20.095,37.851c-9.79,0-17.756-7.966-17.756-17.756S10.305,2.339,20.095,2.339s17.756,7.966,17.756,17.756
		S29.885,37.851,20.095,37.851z M20.095,4.99c-8.328,0-15.105,6.776-15.105,15.105S11.767,35.2,20.095,35.2S35.2,28.423,35.2,20.095
		S28.423,4.99,20.095,4.99z"/>
	<g>
		<circle fill="#DC241F" cx="11.595" cy="20.095" r="1.771"/>
		<circle fill="#DC241F" cx="28.595" cy="20.095" r="1.771"/>
	</g>
	<g>
		<path fill="#DC241F" d="M20.25,24.326c-5.215,0-6.791,4.093-6.806,4.134c-0.081,0.22,0.031,0.463,0.25,0.546
			c0.219,0.081,0.464-0.029,0.548-0.249c0.055-0.147,1.401-3.58,6.008-3.58c4.206,0,5.688,3.479,5.702,3.514
			c0.089,0.217,0.339,0.321,0.556,0.231c0.217-0.089,0.321-0.338,0.231-0.556C26.723,28.327,25.022,24.326,20.25,24.326z"/>
		<path fill="#DC241F" d="M13.839,29.532c-0.106,0-0.213-0.019-0.318-0.058c-0.478-0.181-0.721-0.713-0.546-1.188
			c0.017-0.045,1.711-4.461,7.275-4.461c5.045,0,6.874,4.167,6.949,4.345c0.097,0.233,0.096,0.485,0.001,0.714
			c-0.096,0.229-0.274,0.406-0.503,0.5c-0.226,0.094-0.479,0.094-0.708-0.002s-0.406-0.274-0.5-0.504
			c-0.055-0.127-1.405-3.202-5.239-3.202c-4.283,0-5.49,3.121-5.539,3.254C14.569,29.303,14.213,29.532,13.839,29.532z"/>
	</g>
	<g>
		<g>
			<path fill="#DC241F" d="M8.277,16.681c-0.172,0-0.337-0.102-0.407-0.272c-0.094-0.225,0.012-0.483,0.238-0.578l5.35-2.239
				c0.225-0.094,0.483,0.012,0.578,0.238c0.094,0.225-0.012,0.483-0.238,0.578l-5.35,2.239C8.393,16.671,8.335,16.681,8.277,16.681z
				"/>
			<path fill="#DC241F" d="M8.277,16.931c-0.281,0-0.531-0.167-0.638-0.427c-0.146-0.35,0.021-0.756,0.373-0.903l5.35-2.239
				c0.353-0.146,0.757,0.02,0.905,0.371c0.146,0.353-0.021,0.758-0.372,0.906l-5.35,2.239C8.464,16.913,8.374,16.931,8.277,16.931z
				 M13.627,13.808c-0.024,0-0.049,0.004-0.073,0.015l-5.35,2.239c-0.098,0.041-0.145,0.153-0.104,0.25
				c0.04,0.099,0.176,0.14,0.248,0.105l5.353-2.24c0.098-0.041,0.145-0.154,0.104-0.251C13.774,13.853,13.703,13.808,13.627,13.808z
				"/>
		</g>
		<g>
			<path fill="#DC241F" d="M31.913,16.681c-0.056,0-0.115-0.01-0.17-0.035l-5.35-2.239c-0.226-0.095-0.332-0.353-0.238-0.578
				c0.095-0.226,0.353-0.331,0.578-0.238l5.35,2.239c0.226,0.095,0.332,0.353,0.238,0.578
				C32.249,16.579,32.086,16.681,31.913,16.681z"/>
			<path fill="#DC241F" d="M31.913,16.931c-0.097,0-0.191-0.02-0.273-0.057l-5.344-2.236c-0.171-0.072-0.303-0.205-0.373-0.375
				c-0.07-0.171-0.069-0.359,0.002-0.53c0.147-0.35,0.552-0.516,0.903-0.372l5.352,2.24c0.352,0.148,0.519,0.554,0.372,0.905
				C32.442,16.764,32.191,16.931,31.913,16.931z M26.562,13.807c-0.075,0-0.146,0.044-0.177,0.119
				c-0.02,0.047-0.021,0.099-0.001,0.146s0.057,0.084,0.104,0.104l5.351,2.239c0.098,0.042,0.21-0.009,0.251-0.105
				c0.04-0.096-0.007-0.209-0.105-0.25l-5.349-2.239C26.612,13.812,26.587,13.807,26.562,13.807z"/>
		</g>
	</g>
</g>
</svg>
